<?xml version="1.0" encoding="UTF-8"?>
<svg version="1.1" xmlns="http://www.w3.org/2000/svg" width="1536" height="464" viewBox="140 300 1290 390">
<path d="M0 0 C506.88 0 1013.76 0 1536 0 C1536 337.92 1536 675.84 1536 1024 C1029.12 1024 522.24 1024 0 1024 C0 686.08 0 348.16 0 0 Z " fill="#FAFAFA" transform="translate(0,0)"/>
<path d="M0 0 C0.76154534 -0.00367669 1.52309068 -0.00735338 2.30771315 -0.01114148 C4.84981255 -0.02212054 7.39187099 -0.02601236 9.93399048 -0.02983093 C11.7611097 -0.03610017 13.58822766 -0.04274737 15.41534424 -0.04974365 C21.40934367 -0.07073949 27.40334321 -0.08114491 33.39736938 -0.09111023 C35.46671181 -0.09516008 37.53605411 -0.09927707 39.60539627 -0.10346031 C49.33371973 -0.12250565 59.06203565 -0.13673557 68.79037416 -0.14507228 C79.98884376 -0.15482914 91.18711488 -0.18111092 102.38551462 -0.22157317 C111.0601255 -0.25183123 119.73467982 -0.26655049 128.40934241 -0.26985329 C133.58092102 -0.27219357 138.75228746 -0.28101945 143.92380905 -0.30631447 C148.79780774 -0.329769 153.67145718 -0.33375929 158.54549789 -0.32355309 C160.3222826 -0.32306174 162.09908553 -0.32926187 163.87581635 -0.34310913 C178.19692197 -0.44836512 191.91764883 1.04845953 204.74893188 8.02217102 C205.41271851 8.3687677 206.07650513 8.71536438 206.76040649 9.07246399 C211.6275388 11.66978468 216.04177988 14.56959283 220.24893188 18.14717102 C220.8019397 18.5467804 221.35494751 18.94638977 221.92471313 19.35810852 C235.63879008 29.76189103 245.059703 49.4763099 247.53807735 66.08484554 C248.24190918 72.00974945 248.38503477 77.84511978 248.36245728 83.80757141 C248.3626033 84.83301056 248.36274933 85.85844971 248.36289978 86.91496277 C248.36220797 90.27493978 248.35445007 93.63486005 248.34658813 96.99482727 C248.34472135 99.33608978 248.34329868 101.67735268 248.34230042 104.01861572 C248.33849573 110.15880933 248.32868305 116.29897901 248.31759644 122.43916321 C248.30733816 128.71357398 248.30279335 134.98798864 248.29776001 141.2624054 C248.28705884 153.55733774 248.27000717 165.85225239 248.24893188 178.14717102 C242.39571014 178.24639757 236.54298311 178.31880865 230.68911743 178.36689758 C228.6997728 178.3869544 226.7104867 178.41420687 224.72134399 178.44892883 C221.85409057 178.49770873 218.98761977 178.52019929 216.12002563 178.53779602 C214.79617104 178.56876373 214.79617104 178.56876373 213.4455719 178.60035706 C207.48367876 178.6025005 204.21035778 177.44906899 199.24893188 174.14717102 C194.93494564 172.88403585 191.31567383 172.839457 186.99893188 174.08467102 C181.12726667 178.48841993 178.37146692 185.67080205 175.24893188 192.14717102 C173.24893188 191.14717102 173.24893188 191.14717102 172.46768188 189.41694641 C170.67909929 183.85617994 169.33251648 178.32222876 168.24893188 172.58467102 C168.07942017 171.72132141 167.90990845 170.8579718 167.73526001 169.96846008 C166.930749 165.84420272 166.16600558 161.7165214 165.46768188 157.57295227 C164.26377326 150.50727082 163.15694304 144.25343845 159.24893188 138.14717102 C155.73068677 135.80167428 154.39117494 135.56725699 150.24893188 136.14717102 C139.40488662 145.24164429 139.96415713 164.58841414 138.26455688 177.62373352 C136.87483563 188.1774402 135.07605802 198.66175826 133.24893188 209.14717102 C132.58893188 209.14717102 131.92893188 209.14717102 131.24893188 209.14717102 C129.13470825 197.51144378 127.74829557 185.85717352 126.68643188 174.08467102 C126.62321747 173.38396484 126.56000305 172.68325867 126.49487305 171.96131897 C126.18770766 168.54761579 125.88204304 165.13377988 125.5765686 161.71992493 C124.9904423 155.32844034 124.27456114 148.95531759 123.52578735 142.58125305 C123.18829843 139.61408852 122.87753414 136.64444523 122.56533813 133.67451477 C122.31421007 131.35288136 122.06290823 129.03126673 121.81143188 126.70967102 C121.70121704 125.63088684 121.5910022 124.55210266 121.47744751 123.44062805 C120.39817075 109.92733872 120.39817075 109.92733872 113.24893188 99.14717102 C110.24893188 98.48050435 110.24893188 98.48050435 107.24893188 99.14717102 C99.50952017 105.5411102 99.50390722 117.8665067 98.37393188 127.20967102 C98.25420013 128.17222305 98.25420013 128.17222305 98.13204956 129.15422058 C95.88947435 147.32125443 94.49096843 165.58457907 92.99942017 183.82514954 C92.02714463 195.6451277 91.05455827 207.42056159 89.24893188 219.14717102 C88.58893188 219.14717102 87.92893188 219.14717102 87.24893188 219.14717102 C85.23857055 204.9963159 83.2762488 190.85226047 81.68643188 176.64717102 C80.80272371 152.02986519 80.80272371 152.02986519 70.87393188 130.95967102 C67.47010443 129.90610538 65.62748748 129.99702444 62.24893188 131.14717102 C53.58893702 138.32259533 53.7148781 156.47558787 51.94937134 167.14839172 C50.25538815 177.33624618 48.09630826 187.21351464 45.24893188 197.14717102 C43.05649642 193.85851782 42.31203262 190.86237999 41.43643188 187.08467102 C41.08644496 185.64548487 40.73481702 184.20669702 40.38174438 182.76826477 C40.19773071 182.01529114 40.01371704 181.2623175 39.8241272 180.48652649 C36.58757077 165.4129154 36.58757077 165.4129154 29.24893188 152.14717102 C26.59713304 150.5424118 25.47447965 150.14237213 22.31143188 150.20967102 C18.56661384 151.35604389 16.51798797 153.04161283 14.24893188 156.14717102 C12.25818109 160.33624119 10.80578757 164.72861773 9.28799438 169.1061554 C6.83412405 175.756144 6.83412405 175.756144 3.70596313 177.84638977 C0.65197073 178.22024894 -1.15032748 177.21591484 -3.86434937 175.89717102 C-7.12158424 174.60236958 -10.32553004 174.52323373 -13.75106812 175.14717102 C-14.68966675 175.64362122 -15.62826538 176.14007141 -16.5953064 176.65156555 C-21.99376865 178.99071338 -27.6484545 178.53664112 -33.43075562 178.47529602 C-34.63926178 178.47342285 -35.84776794 178.47154968 -37.09289551 178.46961975 C-39.63620785 178.46291768 -42.17951021 178.44904012 -44.7227478 178.42842102 C-48.63332602 178.39711291 -52.54350168 178.38743266 -56.45419312 178.38154602 C-58.92555224 178.37238194 -61.39690725 178.36200808 -63.86825562 178.35029602 C-65.04419281 178.34604614 -66.22013 178.34179626 -67.43170166 178.3374176 C-69.04940964 178.32300629 -69.04940964 178.32300629 -70.69979858 178.30830383 C-72.13040115 178.29806183 -72.13040115 178.29806183 -73.58990479 178.28761292 C-75.75106812 178.14717102 -75.75106812 178.14717102 -76.75106812 177.14717102 C-76.85508373 175.77934738 -76.89067239 174.40623684 -76.89823914 173.03448486 C-76.90539444 172.14750412 -76.91254974 171.26052338 -76.91992188 170.34666443 C-76.92261078 169.36551666 -76.92529968 168.3843689 -76.92807007 167.37348938 C-76.93464127 166.34565842 -76.94121246 165.31782745 -76.94798279 164.2588501 C-76.96779242 160.8349043 -76.97940294 157.41100278 -76.98934937 153.98701477 C-76.99342489 152.81638552 -76.99750042 151.64575626 -77.00169945 150.4396534 C-77.02260496 144.22912394 -77.03688029 138.01861678 -77.04623413 131.80805969 C-77.05723407 125.42315182 -77.09154635 119.0385987 -77.13140583 112.65381527 C-77.15771181 107.72317917 -77.16593893 102.7926252 -77.16951561 97.86192513 C-77.17435519 95.51107483 -77.18589305 93.16022755 -77.2045536 90.80944633 C-77.40538296 63.80406986 -72.21884878 41.96891133 -52.75106812 22.14717102 C-52.0021228 21.37373352 -51.25317749 20.60029602 -50.48153687 19.80342102 C-37.00503407 6.75155098 -18.67223447 -0.00489607 0 0 Z " fill="#0B1F31" transform="translate(264.7510681152344,333.8528289794922)"/>
<path d="M0 0 C0.66 0 1.32 0 2 0 C2.26352858 2.35541282 2.52652373 4.71088297 2.7890625 7.06640625 C2.87693024 7.85463272 2.96479797 8.64285919 3.05532837 9.45497131 C3.77018367 15.88750055 4.46842061 22.32174721 5.16351318 28.75643921 C5.66910392 33.41936499 6.18068682 38.08161298 6.69488144 42.74359703 C7.07400018 46.18393792 7.44960673 49.62458873 7.81738281 53.06616211 C9.81798808 72.18081063 9.81798808 72.18081063 12.9765625 91.12890625 C13.11975922 91.87405991 13.26295593 92.61921356 13.41049194 93.38694763 C14.38275326 97.8258935 15.79390594 100.76689043 19 104 C21.89706707 105.24677006 21.89706707 105.24677006 25 105 C29.13316562 102.51603248 30.72148161 100.10835263 32.029953 95.48260498 C32.30323174 94.38519989 32.30323174 94.38519989 32.58203125 93.265625 C32.78721878 92.48423157 32.99240631 91.70283813 33.20381165 90.89776611 C35.84344366 80.3304982 37.21401458 69.52763693 38.6875 58.75 C39.12817914 55.57952489 39.57237831 52.40963089 40.02290344 49.24053955 C40.29962683 47.28922319 40.57047363 45.33706104 40.83439636 43.38397217 C41.48955807 38.71620134 42.30499635 34.43019607 44 30 C46.12603203 33.61713526 46.81968812 37.40725867 47.5859375 41.4765625 C47.880007 42.96748764 48.17428466 44.45837174 48.46875 45.94921875 C48.92181084 48.27847876 49.37180013 50.60826247 49.81738281 52.93896484 C52.17791015 67.81823299 52.17791015 67.81823299 59.375 80.625 C62.66904771 82.35045356 64.32927945 82.67421398 68 82 C73.65103684 78.03683863 75.76846606 74.06266553 78.36523438 67.8203125 C79.19140625 65.984375 79.19140625 65.984375 81 63 C83.36743164 62.16430664 83.36743164 62.16430664 86 62 C87.89794922 62.9675293 87.89794922 62.9675293 89.9296875 64.38671875 C98.45196134 68.95775654 108.7148803 67.78722045 118.125 67.8125 C120.15106827 67.83567081 122.17711264 67.86104146 124.203125 67.88867188 C129.13550591 67.95118761 134.06725843 67.98378852 139 68 C139.04665788 75.48536353 139.08203716 82.97071168 139.10362434 90.4561882 C139.11399317 93.93324731 139.12802354 97.4102058 139.15087891 100.88720703 C139.17707845 104.89877198 139.18652971 108.9102338 139.1953125 112.921875 C139.20563507 114.15049255 139.21595764 115.37911011 139.22659302 116.6449585 C139.22835282 130.39510726 136.59372066 141.55599825 131 154 C130.56945312 154.97066406 130.13890625 155.94132813 129.6953125 156.94140625 C121.40424468 173.79336955 105.01235101 187.07206082 87.5234375 193.22265625 C79.93821673 195.61123029 73.17356697 197.14999389 65.20387268 197.14044189 C64.0362183 197.14489858 64.0362183 197.14489858 62.84497494 197.1494453 C60.23981935 197.1581079 57.63470985 197.15963851 55.02954102 197.16113281 C53.1599162 197.1657629 51.29029233 197.17078781 49.42066956 197.17617798 C44.34167556 197.18928997 39.26269477 197.19574518 34.18368649 197.20018864 C31.0063918 197.2031227 27.82910068 197.20722826 24.65180779 197.21169281 C14.69922959 197.22536768 4.74665962 197.23503308 -5.20592731 197.2388947 C-16.67210193 197.24336857 -28.13815693 197.26088534 -39.60429519 197.2898953 C-48.4801277 197.31156702 -57.3559267 197.32160199 -66.23178536 197.32293582 C-71.52623316 197.32398038 -76.82056852 197.32981297 -82.11498833 197.34775543 C-87.10301227 197.3643301 -92.09084041 197.36634634 -97.07888222 197.35761642 C-98.90003868 197.35685092 -100.72120607 197.36112379 -102.54233551 197.37107468 C-126.50247319 197.49421409 -146.26793452 191.48539102 -163.875 174.625 C-184.48289801 153.08989613 -186.63666104 127.76817471 -186.2746582 99.62408447 C-186.23317026 96.05026803 -186.21535094 92.47633341 -186.1953125 88.90234375 C-186.15287188 81.93461212 -186.08492999 74.96734029 -186 68 C-185.30366455 67.99413376 -184.6073291 67.98826752 -183.88989258 67.98222351 C-177.29933682 67.92410828 -170.70909879 67.85192535 -164.11886597 67.76428509 C-160.73144958 67.71972444 -157.3441495 67.68043801 -153.95654297 67.65356445 C-150.05406748 67.61991008 -146.15221308 67.56758599 -142.25 67.51171875 C-141.04448486 67.50532883 -139.83896973 67.4989389 -138.59692383 67.49235535 C-131.96445528 67.37725224 -127.08527686 66.60168266 -121 64 C-117.5657576 64.17171212 -115.04071448 64.44712043 -112 66.0625 C-107.97513002 67.9491578 -103.89610473 67.20289164 -99.6875 66.25 C-96.46594491 64.75160229 -96.37099116 64.16746233 -95 61 C-94.525625 59.91847656 -94.05125 58.83695313 -93.5625 57.72265625 C-93.046875 56.51480469 -92.53125 55.30695313 -92 54.0625 C-91.484375 52.85722656 -90.96875 51.65195312 -90.4375 50.41015625 C-89.26040428 47.61775253 -88.11246788 44.81860853 -87 42 C-85.515 42.495 -85.515 42.495 -84 43 C-80.92060403 49.91985939 -79.61008401 57.67764686 -78.0625 65.0625 C-75.61559369 78.44651267 -75.61559369 78.44651267 -68 89 C-64.10799453 89.3877904 -60.21494737 88.9719579 -57.125 86.5 C-53.61523723 78.70052718 -52.03047912 70.63716971 -50.5625 62.25 C-50.1304384 59.86063547 -49.6981437 57.47131308 -49.265625 55.08203125 C-48.84325458 52.72144276 -48.42136524 50.36076812 -48 48 C-47.28114925 43.97720062 -46.55165146 39.95661394 -45.8125 35.9375 C-45.5805896 34.61830566 -45.5805896 34.61830566 -45.34399414 33.27246094 C-44.22700444 27.22700444 -44.22700444 27.22700444 -42 25 C-39.39006231 37.85533139 -37.46452499 50.71989322 -36 63.75 C-34.80468319 74.33892063 -33.53683396 84.89980344 -31.9375 95.4375 C-31.78732422 96.45360352 -31.63714844 97.46970703 -31.48242188 98.51660156 C-30.44606752 105.15949953 -28.89660432 111.55123038 -27 118 C-21.14827953 119.26474883 -21.14827953 119.26474883 -15.625 117.6875 C-10.74440042 109.61573915 -10.10269436 99.80546256 -9.0625 90.625 C-8.8946719 89.19896763 -8.72678269 87.77294246 -8.55883789 86.34692383 C-6.93021468 72.26913589 -5.6831653 58.15452055 -4.4387207 44.03857422 C-3.14149636 29.33675195 -1.66011374 14.66561309 0 0 Z " fill="#055E95" transform="translate(374,455)"/>
<path d="M0 0 C0.66 0 1.32 0 2 0 C2.26352858 2.35541282 2.52652373 4.71088297 2.7890625 7.06640625 C2.87693024 7.85463272 2.96479797 8.64285919 3.05532837 9.45497131 C3.77018367 15.88750055 4.46842061 22.32174721 5.16351318 28.75643921 C5.66910392 33.41936499 6.18068682 38.08161298 6.69488144 42.74359703 C7.07400018 46.18393792 7.44960673 49.62458873 7.81738281 53.06616211 C9.81798808 72.18081063 9.81798808 72.18081063 12.9765625 91.12890625 C13.11975922 91.87405991 13.26295593 92.61921356 13.41049194 93.38694763 C14.38275326 97.8258935 15.79390594 100.76689043 19 104 C21.89706707 105.24677006 21.89706707 105.24677006 25 105 C29.13316562 102.51603248 30.72148161 100.10835263 32.029953 95.48260498 C32.30323174 94.38519989 32.30323174 94.38519989 32.58203125 93.265625 C32.78721878 92.48423157 32.99240631 91.70283813 33.20381165 90.89776611 C35.84344366 80.3304982 37.21401458 69.52763693 38.6875 58.75 C39.12817914 55.57952489 39.57237831 52.40963089 40.02290344 49.24053955 C40.29962683 47.28922319 40.57047363 45.33706104 40.83439636 43.38397217 C41.48955807 38.71620134 42.30499635 34.43019607 44 30 C46.12603203 33.61713526 46.81968812 37.40725867 47.5859375 41.4765625 C47.880007 42.96748764 48.17428466 44.45837174 48.46875 45.94921875 C48.92181084 48.27847876 49.37180013 50.60826247 49.81738281 52.93896484 C52.17791015 67.81823299 52.17791015 67.81823299 59.375 80.625 C62.66904771 82.35045356 64.32927945 82.67421398 68 82 C73.65103684 78.03683863 75.76846606 74.06266553 78.36523438 67.8203125 C79.19140625 65.984375 79.19140625 65.984375 81 63 C83.36547852 62.16430664 83.36547852 62.16430664 86 62 C87.91552734 62.9675293 87.91552734 62.9675293 89.9609375 64.38671875 C98.3594679 68.89138506 108.349304 67.78696204 117.625 67.8125 C119.60289182 67.83567209 121.58075917 67.86104301 123.55859375 67.88867188 C128.37295261 67.95525773 133.18447059 67.97658231 138 68 C138 78.23 138 88.46 138 99 C134.16375 99.07347656 134.16375 99.07347656 130.25 99.1484375 C127.71446928 99.20277365 125.17901698 99.25995125 122.64355469 99.31738281 C120.90989262 99.35516858 119.17616545 99.39009892 117.44238281 99.421875 C103.26439469 99.68473457 88.93166411 100.06801463 75.25 104.1875 C74.51378418 104.40108154 73.77756836 104.61466309 73.01904297 104.8347168 C61.21599787 108.33297171 49.63141173 112.47329888 38.24291992 117.140625 C-7.1522381 135.73759047 -47.88533574 129.28336735 -92.25 111.8125 C-102.96828057 107.60242805 -113.66738394 104.11621277 -125 102 C-125.94053223 101.82033691 -126.88106445 101.64067383 -127.85009766 101.45556641 C-139.45865365 99.5129244 -151.13425292 99.5488565 -162.875 99.375 C-165.02735804 99.33673297 -167.1797022 99.2976765 -169.33203125 99.2578125 C-174.55460717 99.16132149 -179.77707035 99.0810087 -185 99 C-185 88.77 -185 78.54 -185 68 C-181.0503125 67.96261719 -177.100625 67.92523437 -173.03125 67.88671875 C-169.19200201 67.84046415 -165.35285 67.7892446 -161.51367188 67.73754883 C-158.85217393 67.70274213 -156.19096857 67.67631239 -153.52929688 67.65356445 C-149.69631503 67.61990411 -145.86396484 67.56757986 -142.03125 67.51171875 C-140.25578796 67.50213387 -140.25578796 67.50213387 -138.44445801 67.49235535 C-131.86567499 67.37614405 -127.03928955 66.57169918 -121 64 C-117.5657576 64.17171212 -115.04071448 64.44712043 -112 66.0625 C-107.97513002 67.9491578 -103.89610473 67.20289164 -99.6875 66.25 C-96.46594491 64.75160229 -96.37099116 64.16746233 -95 61 C-94.525625 59.91847656 -94.05125 58.83695313 -93.5625 57.72265625 C-93.046875 56.51480469 -92.53125 55.30695313 -92 54.0625 C-91.484375 52.85722656 -90.96875 51.65195312 -90.4375 50.41015625 C-89.26040428 47.61775253 -88.11246788 44.81860853 -87 42 C-85.515 42.495 -85.515 42.495 -84 43 C-80.92060403 49.91985939 -79.61008401 57.67764686 -78.0625 65.0625 C-75.61559369 78.44651267 -75.61559369 78.44651267 -68 89 C-64.10799453 89.3877904 -60.21494737 88.9719579 -57.125 86.5 C-53.61523723 78.70052718 -52.03047912 70.63716971 -50.5625 62.25 C-50.1304384 59.86063547 -49.6981437 57.47131308 -49.265625 55.08203125 C-48.84325458 52.72144276 -48.42136524 50.36076812 -48 48 C-47.28114925 43.97720062 -46.55165146 39.95661394 -45.8125 35.9375 C-45.5805896 34.61830566 -45.5805896 34.61830566 -45.34399414 33.27246094 C-44.22700444 27.22700444 -44.22700444 27.22700444 -42 25 C-39.39006231 37.85533139 -37.46452499 50.71989322 -36 63.75 C-34.80468319 74.33892063 -33.53683396 84.89980344 -31.9375 95.4375 C-31.78732422 96.45360352 -31.63714844 97.46970703 -31.48242188 98.51660156 C-30.44606752 105.15949953 -28.89660432 111.55123038 -27 118 C-21.14827953 119.26474883 -21.14827953 119.26474883 -15.625 117.6875 C-10.74440042 109.61573915 -10.10269436 99.80546256 -9.0625 90.625 C-8.8946719 89.19896763 -8.72678269 87.77294246 -8.55883789 86.34692383 C-6.93021468 72.26913589 -5.6831653 58.15452055 -4.4387207 44.03857422 C-3.14149636 29.33675195 -1.66011374 14.66561309 0 0 Z " fill="#064975" transform="translate(374,455)"/>
<path d="M0 0 C8.63286651 3.46644301 17.26347185 6.13397368 26.32446289 8.31469727 C28.01249023 8.75894043 28.01249023 8.75894043 29.73461914 9.2121582 C38.63199436 11.39283706 47.14916435 11.77873857 56.25488281 11.70581055 C58.62437103 11.68978244 60.99213654 11.70572341 63.36157227 11.72485352 C85.37614278 11.76196747 105.40613042 5.99862982 125.62582397 -2.33407593 C137.98701548 -7.40833331 150.18897571 -12.0292783 163.32446289 -14.68530273 C164.43692383 -14.92506836 165.54938477 -15.16483398 166.69555664 -15.41186523 C181.4761566 -18.07343786 197.46894914 -17.47927737 212.32446289 -15.68530273 C209.96453452 -1.16266662 197.16193871 11.05713983 185.87524414 19.60766602 C173.92962377 27.60190201 159.91961555 32.47238768 145.52833557 32.45513916 C144.36068119 32.45959584 144.36068119 32.45959584 143.16943783 32.46414256 C140.56428224 32.47280516 137.95917274 32.47433577 135.35400391 32.47583008 C133.48437909 32.48046016 131.61475522 32.48548508 129.74513245 32.49087524 C124.66613845 32.50398723 119.58715766 32.51044245 114.50814939 32.5148859 C111.33085469 32.51781997 108.15356357 32.52192552 104.97627068 32.52639008 C95.02369248 32.54006494 85.07112251 32.54973034 75.11853558 32.55359197 C63.65236096 32.55806584 52.18630596 32.57558261 40.7201677 32.60459256 C31.84433519 32.62626428 22.96853619 32.63629925 14.09267753 32.63763309 C8.79822973 32.63867764 3.50389437 32.64451023 -1.79052544 32.6624527 C-6.77854938 32.67902736 -11.76637752 32.68104361 -16.75441933 32.67231369 C-18.57557579 32.67154819 -20.39674318 32.67582105 -22.21787262 32.68577194 C-46.1780103 32.80891135 -65.94347163 26.80008829 -83.55053711 9.93969727 C-89.00211013 4.27355796 -98.67553711 -6.18002327 -98.67553711 -14.68530273 C-64.05682875 -21.40505202 -31.91296728 -12.9162922 0 0 Z " fill="#054C7D" transform="translate(293.675537109375,619.685302734375)"/>
<path d="M0 0 C0.33 0 0.66 0 1 0 C1 10.23 1 20.46 1 31 C5.66769531 30.94779297 5.66769531 30.94779297 10.4296875 30.89453125 C13.50796597 30.87100703 16.5862337 30.85286408 19.66455078 30.83520508 C21.77267073 30.82029594 23.88076067 30.79996151 25.98876953 30.77368164 C39.34510797 30.61157472 51.91589725 31.25345844 65 34 C65.6672258 34.13600113 66.3344516 34.27200226 67.02189636 34.41212463 C79.8740843 37.03937732 91.80132835 42.0239076 103.97558594 46.81640625 C116.14821434 51.58012134 128.19673679 55.33958167 141 58 C142.01191406 58.226875 143.02382813 58.45375 144.06640625 58.6875 C173.14698206 64.51170434 202.53555403 56.54809517 229.46484375 46.12109375 C255.0716883 36.2519318 277.71308361 30.79908236 305.125 30.9375 C306.86197788 30.94252485 308.59895716 30.94708602 310.3359375 30.95117188 C314.55735539 30.96124205 318.77857482 30.98083107 323 31 C323 37.6 323 44.2 323 51 C319.57560547 51.05607422 319.57560547 51.05607422 316.08203125 51.11328125 C285.32188021 51.69252543 258.78634282 55.53522825 230.12646484 67.30883789 C221.20941694 70.96898632 212.20756825 74.15507286 203 77 C201.45699219 77.51046875 201.45699219 77.51046875 199.8828125 78.03125 C189.15137633 81.00564185 178.05959371 81.31840986 167 81.25 C165.74960937 81.25773438 164.49921875 81.26546875 163.2109375 81.2734375 C140.60127336 81.2266266 119.42926076 75.16494381 98.77490234 66.38696289 C73.12805101 55.4893008 47.97835197 52.03537719 20.3125 51.4375 C18.43553903 51.39421918 16.55858578 51.35060216 14.68164062 51.30664062 C10.12117354 51.20054977 5.56062602 51.09901254 1 51 C1 54.3 1 57.6 1 61 C0.67 61 0.34 61 0 61 C0 40.87 0 20.74 0 0 Z " fill="#077FAF" transform="translate(188,523)"/>
<path d="M0 0 C0.91485168 -0.0127597 1.82970337 -0.02551941 2.77227783 -0.03866577 C3.75460388 -0.04089142 4.73692993 -0.04311707 5.74902344 -0.04541016 C6.76760437 -0.05206696 7.7861853 -0.05872375 8.83563232 -0.06558228 C10.99082638 -0.07570336 13.14605174 -0.08039946 15.30126953 -0.08007812 C18.58256408 -0.08443833 21.8624992 -0.12072878 25.14355469 -0.15869141 C27.24120636 -0.16456241 29.33886439 -0.1685299 31.43652344 -0.17041016 C32.41075256 -0.18478119 33.38498169 -0.19915222 34.38873291 -0.21395874 C41.54074633 -0.16650852 46.90614588 1.31145998 52.38183594 6.03662109 C53.05085937 6.87386719 53.05085937 6.87386719 53.73339844 7.72802734 C54.425625 8.56140625 54.425625 8.56140625 55.13183594 9.41162109 C57.77713232 13.46381077 58.61076696 17.06867912 58.64892578 21.87182617 C58.66168549 22.96678909 58.67444519 24.06175201 58.68759155 25.18989563 C58.6898172 26.36392441 58.69204285 27.53795319 58.69433594 28.74755859 C58.70432114 30.57295418 58.70432114 30.57295418 58.71450806 32.43522644 C58.72462597 35.00815318 58.72932534 37.58110612 58.72900391 40.15405273 C58.73337086 44.07824273 58.7696852 48.00130232 58.80761719 51.92529297 C58.8134868 54.42854434 58.81745523 56.93180104 58.81933594 59.43505859 C58.83370697 60.60301468 58.848078 61.77097076 58.86288452 62.97431946 C58.81946225 70.76797787 57.85115437 76.24299363 52.61230469 82.31396484 C52.05414062 82.75998047 51.49597656 83.20599609 50.92089844 83.66552734 C50.08751953 84.35775391 50.08751953 84.35775391 49.23730469 85.06396484 C43.69209534 88.6839144 38.51896124 88.61148394 32.08886719 88.62646484 C31.09389725 88.63312164 30.09892731 88.63977844 29.07380676 88.64663696 C26.97166792 88.65674632 24.86949711 88.66145451 22.76733398 88.66113281 C19.56732672 88.66549811 16.36870806 88.70181495 13.16894531 88.73974609 C11.12142396 88.74561633 9.07389609 88.74958434 7.02636719 88.75146484 C6.0771489 88.76583588 5.1279306 88.78020691 4.14994812 88.79501343 C-2.92011719 88.74690087 -8.25498583 87.21295443 -13.66503906 82.54443359 C-14.11105469 81.98626953 -14.55707031 81.42810547 -15.01660156 80.85302734 C-15.47808594 80.29744141 -15.93957031 79.74185547 -16.41503906 79.16943359 C-19.07979251 75.08743866 -19.89534124 71.45445697 -19.94799805 66.61743164 C-19.96398544 65.50244797 -19.97997284 64.38746429 -19.9964447 63.23869324 C-20.0018074 62.04279068 -20.0071701 60.84688812 -20.01269531 59.61474609 C-20.02623802 57.75605644 -20.02623802 57.75605644 -20.04005432 55.8598175 C-20.05455209 53.23982151 -20.06344237 50.61978936 -20.06713867 47.99975586 C-20.07144723 45.32357225 -20.09230426 42.64835018 -20.12866211 39.97241211 C-20.1775528 36.10289295 -20.1929312 32.23454245 -20.20019531 28.36474609 C-20.21972763 27.17491623 -20.23925995 25.98508636 -20.25938416 24.75920105 C-20.21596467 16.7261653 -18.86600039 11.51816257 -13.12791443 5.77568054 C-8.96994057 2.12418618 -5.54173657 0.05268234 0 0 Z " fill="#F7F7F8" transform="translate(814.6416015625,463.70947265625)"/>
<path d="M0 0 C0.91485168 -0.0127597 1.82970337 -0.02551941 2.77227783 -0.03866577 C3.75460388 -0.04089142 4.73692993 -0.04311707 5.74902344 -0.04541016 C6.76760437 -0.05206696 7.7861853 -0.05872375 8.83563232 -0.06558228 C10.99082638 -0.07570336 13.14605174 -0.08039946 15.30126953 -0.08007812 C18.58256408 -0.08443833 21.8624992 -0.12072878 25.14355469 -0.15869141 C27.24120636 -0.16456241 29.33886439 -0.1685299 31.43652344 -0.17041016 C32.41075256 -0.18478119 33.38498169 -0.19915222 34.38873291 -0.21395874 C41.54698302 -0.16646715 46.86354926 1.33542322 52.38183594 6.00146484 C52.82785156 6.55060547 53.27386719 7.09974609 53.73339844 7.66552734 C54.425625 8.48150391 54.425625 8.48150391 55.13183594 9.31396484 C58.18283305 14.2305398 58.60069766 18.97232138 58.55371094 24.65771484 C58.55088104 25.33730255 58.54805115 26.01689026 58.5451355 26.71707153 C58.53402808 28.86674342 58.50894234 31.01598348 58.48339844 33.16552734 C58.47335638 34.63166712 58.46423268 36.09781349 58.45605469 37.56396484 C58.43412003 41.13962366 58.39965658 44.71503328 58.35839844 48.29052734 C55.58989021 49.67478146 53.35420659 49.41012697 50.25634766 49.40405273 C48.97517059 49.4039772 47.69399353 49.40390167 46.37399292 49.40382385 C44.97035687 49.39871682 43.56672121 49.39350082 42.16308594 49.38818359 C40.73104908 49.3863188 39.2990116 49.38489519 37.86697388 49.38389587 C34.0956649 49.38007553 30.32439436 49.37024936 26.55310059 49.35919189 C22.70565308 49.3489674 18.85819936 49.34439603 15.01074219 49.33935547 C7.4599434 49.32862667 -0.0908237 49.31155603 -7.64160156 49.29052734 C-7.55440693 52.35436636 -7.44749759 55.41536786 -7.32910156 58.47802734 C-7.30654297 59.34234375 -7.28398438 60.20666016 -7.26074219 61.09716797 C-7.05899933 65.88397583 -6.86784306 69.48843496 -3.64160156 73.29052734 C-0.48920112 75.25528757 1.99484049 75.55676223 5.67773438 75.609375 C6.7385321 75.62924469 7.79932983 75.64911438 8.89227295 75.66958618 C10.60027069 75.68691299 10.60027069 75.68691299 12.34277344 75.70458984 C13.51350403 75.72395599 14.68423462 75.74332214 15.89044189 75.76327515 C19.62968663 75.82305442 23.36896218 75.86945035 27.10839844 75.91552734 C29.64356811 75.95370858 32.17872484 75.9927604 34.71386719 76.03271484 C40.92859597 76.12875471 47.14340276 76.21380726 53.35839844 76.29052734 C53.38527123 78.10294786 53.40473559 79.91547968 53.42089844 81.72802734 C53.4325 82.73736328 53.44410156 83.74669922 53.45605469 84.78662109 C53.35839844 87.29052734 53.35839844 87.29052734 52.35839844 88.29052734 C50.65215455 88.40506387 48.9411967 88.45014795 47.23120117 88.4675293 C46.13593613 88.48036453 45.04067108 88.49319977 43.91221619 88.50642395 C42.71754227 88.51381088 41.52286835 88.52119781 40.29199219 88.52880859 C39.06940201 88.53688034 37.84681183 88.54495209 36.58717346 88.55326843 C33.99034045 88.5671339 31.39348903 88.57784496 28.79663086 88.58569336 C24.83711949 88.59886394 20.87822954 88.64670913 16.91894531 88.69091797 C14.39746709 88.70104938 11.87598175 88.70956407 9.35449219 88.71630859 C8.17398788 88.73381668 6.99348358 88.75132477 5.77720642 88.7693634 C-2.0698946 88.7488169 -7.55185192 87.81971285 -13.66503906 82.54443359 C-14.11105469 81.98626953 -14.55707031 81.42810547 -15.01660156 80.85302734 C-15.47808594 80.29744141 -15.93957031 79.74185547 -16.41503906 79.16943359 C-19.07979251 75.08743866 -19.89534124 71.45445697 -19.94799805 66.61743164 C-19.96398544 65.50244797 -19.97997284 64.38746429 -19.9964447 63.23869324 C-20.0018074 62.04279068 -20.0071701 60.84688812 -20.01269531 59.61474609 C-20.02623802 57.75605644 -20.02623802 57.75605644 -20.04005432 55.8598175 C-20.05455209 53.23982151 -20.06344237 50.61978936 -20.06713867 47.99975586 C-20.07144723 45.32357225 -20.09230426 42.64835018 -20.12866211 39.97241211 C-20.1775528 36.10289295 -20.1929312 32.23454245 -20.20019531 28.36474609 C-20.21972763 27.17491623 -20.23925995 25.98508636 -20.25938416 24.75920105 C-20.21596467 16.7261653 -18.86600039 11.51816257 -13.12791443 5.77568054 C-8.96994057 2.12418618 -5.54173657 0.05268234 0 0 Z " fill="#0F2234" transform="translate(998.6416015625,463.70947265625)"/>
<path d="M0 0 C1.01433609 -0.0038269 2.02867218 -0.00765381 3.07374573 -0.01159668 C5.21103919 -0.01430899 7.34836624 -0.00699569 9.4855957 0.00976562 C12.74050656 0.03116192 15.99320465 0.0099514 19.24804688 -0.015625 C21.33203608 -0.01298117 23.41602392 -0.00785505 25.5 0 C26.46481796 -0.00809692 27.42963593 -0.01619385 28.4236908 -0.02453613 C35.53048417 0.07309869 41.24871253 1.44609312 46.375 6.6015625 C46.83003906 7.27960938 47.28507812 7.95765625 47.75390625 8.65625 C48.22699219 9.33945312 48.70007812 10.02265625 49.1875 10.7265625 C51.57398383 14.54163353 51.46140076 17.73420099 51.44921875 22.12890625 C51.45017548 22.87837021 51.4511322 23.62783417 51.45211792 24.40000916 C51.45279866 25.98452844 51.45095176 27.56905052 51.44677734 29.15356445 C51.44142008 31.58746555 51.44672972 34.02118273 51.453125 36.45507812 C51.45246435 37.99218791 51.45118345 39.52929758 51.44921875 41.06640625 C51.45124298 41.79867935 51.45326721 42.53095245 51.45535278 43.28541565 C51.43136293 48.41629332 51.43136293 48.41629332 50.31640625 49.53125 C48.32208895 49.62530142 46.32441082 49.64868249 44.32788086 49.64477539 C43.04662827 49.64469986 41.76537567 49.64462433 40.44529724 49.64454651 C39.03644777 49.63943909 37.62759869 49.63422309 36.21875 49.62890625 C34.78528391 49.62704202 33.35181718 49.62561814 31.91835022 49.62461853 C28.13880668 49.62079372 24.35930135 49.61096377 20.57977295 49.59991455 C16.72571327 49.58969963 12.87164743 49.58512074 9.01757812 49.58007812 C1.45050338 49.56934146 -6.11653984 49.55226549 -13.68359375 49.53125 C-13.56936082 52.59449619 -13.44261523 55.65635914 -13.30859375 58.71875 C-13.27765625 59.58306641 -13.24671875 60.44738281 -13.21484375 61.33789062 C-12.99945144 67.69821166 -12.99945144 67.69821166 -10.68359375 73.53125 C-7.52687419 75.54030844 -4.97378269 75.79820997 -1.27246094 75.85009766 C-0.19164246 75.86996735 0.88917603 75.88983704 2.00274658 75.91030884 C3.74355499 75.92763565 3.74355499 75.92763565 5.51953125 75.9453125 C6.71245789 75.96467865 7.90538452 75.9840448 9.13446045 76.0039978 C12.94503629 76.06378267 16.75564235 76.11017527 20.56640625 76.15625 C23.14975277 76.19443072 25.73308657 76.2334825 28.31640625 76.2734375 C34.64962671 76.36948344 40.98292374 76.45453436 47.31640625 76.53125 C47.34327904 78.34367052 47.3627434 80.15620233 47.37890625 81.96875 C47.39050781 82.97808594 47.40210938 83.98742187 47.4140625 85.02734375 C47.31640625 87.53125 47.31640625 87.53125 46.31640625 88.53125 C44.61016236 88.64578652 42.89920452 88.69087061 41.18920898 88.70825195 C40.09394394 88.72108719 38.99867889 88.73392242 37.870224 88.74714661 C36.67555008 88.75453354 35.48087616 88.76192047 34.25 88.76953125 C33.02740982 88.777603 31.80481964 88.78567474 30.54518127 88.79399109 C27.94834826 88.80785655 25.35149684 88.81856762 22.75463867 88.82641602 C18.7951273 88.8395866 14.83623735 88.88743179 10.87695312 88.93164062 C8.3554749 88.94177203 5.83398956 88.95028673 3.3125 88.95703125 C2.1319957 88.97453934 0.95149139 88.99204742 -0.26478577 89.01008606 C-8.11188679 88.98953956 -13.5938441 88.06043551 -19.70703125 82.78515625 C-20.15304687 82.22699219 -20.5990625 81.66882813 -21.05859375 81.09375 C-21.52007813 80.53816406 -21.9815625 79.98257813 -22.45703125 79.41015625 C-25.13477633 75.30826012 -25.93547635 71.68762685 -25.95825195 66.82641602 C-25.96778397 65.70497696 -25.97731598 64.5835379 -25.98713684 63.42811584 C-25.98622543 62.22593918 -25.98531403 61.02376251 -25.984375 59.78515625 C-25.98866013 58.54128647 -25.99294525 57.29741669 -25.99736023 56.01585388 C-26.00456613 52.71538148 -26.0014842 49.41509184 -25.99578857 46.11462402 C-25.99609325 44.09705382 -26.00613109 42.07977722 -26.01977539 40.06225586 C-26.04427896 36.17808278 -26.04843049 32.29439701 -26.046875 28.41015625 C-26.05608475 27.21000381 -26.06529449 26.00985138 -26.07478333 24.77333069 C-26.03367745 17.35177539 -25.38938596 12.68800758 -20.43359375 6.90625 C-13.62732653 1.02811013 -8.80872849 -0.07376964 0 0 Z " fill="#0D2233" transform="translate(1326.68359375,463.46875)"/>
<path d="M0 0 C1.50046875 0.00386719 1.50046875 0.00386719 3.03125 0.0078125 C4.0315625 0.00523437 5.031875 0.00265625 6.0625 0 C8.53125 0.1328125 8.53125 0.1328125 9.53125 1.1328125 C9.61986992 3.9444463 9.64647355 6.73139505 9.62890625 9.54296875 C9.6274913 10.38500351 9.62607635 11.22703827 9.62461853 12.09458923 C9.61900263 14.79486585 9.60644748 17.49506078 9.59375 20.1953125 C9.58873705 22.02148318 9.58417379 23.84765516 9.58007812 25.67382812 C9.56902804 30.16018792 9.55175279 34.64648634 9.53125 39.1328125 C10.15346436 38.97272705 10.77567871 38.8126416 11.41674805 38.64770508 C15.73646097 37.93356582 19.99125406 37.92996112 24.36328125 37.89453125 C25.3138591 37.8864595 26.26443695 37.87838776 27.24382019 37.87007141 C29.25180254 37.85626925 31.25980796 37.84552988 33.26782227 37.83764648 C35.31314 37.82612037 37.35842751 37.80565866 39.40356445 37.77612305 C42.36950988 37.73331855 45.33456477 37.71726072 48.30078125 37.70703125 C49.65898735 37.68076912 49.65898735 37.68076912 51.04463196 37.65397644 C57.9865899 37.67747779 63.21190147 39.32610467 68.5546875 43.84375 C69.00070312 44.39289063 69.44671875 44.94203125 69.90625 45.5078125 C70.59847656 46.32378906 70.59847656 46.32378906 71.3046875 47.15625 C74.29124376 51.96898079 74.78063533 56.65597422 74.77416992 62.22387695 C74.77606827 62.90589676 74.77796661 63.58791656 74.77992249 64.29060364 C74.78360225 66.52588707 74.77297084 68.76083964 74.76171875 70.99609375 C74.7605258 72.55453961 74.76007403 74.1129862 74.7603302 75.6714325 C74.75877047 78.92691591 74.75051625 82.18228856 74.73706055 85.43774414 C74.72000067 89.61884415 74.71624849 93.79982343 74.71700573 97.98095417 C74.71673453 101.19358989 74.71126262 104.40619901 74.70400429 107.61882591 C74.70081504 109.16146837 74.69884962 110.70411384 74.69811058 112.24675941 C74.69595371 114.39413277 74.68722591 116.54137525 74.67651367 118.6887207 C74.67270187 119.91194534 74.66889008 121.13516998 74.66496277 122.39546204 C74.53125 125.1328125 74.53125 125.1328125 73.53125 126.1328125 C71.86695949 126.23105187 70.19843069 126.26254881 68.53125 126.2578125 C67.17 126.26167969 67.17 126.26167969 65.78125 126.265625 C63.53125 126.1328125 63.53125 126.1328125 62.53125 125.1328125 C62.42317579 123.07345274 62.38495522 121.01040422 62.37353516 118.94824219 C62.36845444 118.3026384 62.36337372 117.65703461 62.35813904 116.99186707 C62.34741374 115.58518596 62.33880208 114.17848756 62.33201981 112.77178192 C62.32025559 110.54390991 62.30080768 108.31623394 62.27890015 106.08843994 C62.21721335 99.75254872 62.16329446 93.41667465 62.12988281 87.08056641 C62.10891124 83.20834452 62.0735828 79.33647496 62.02912521 75.46445465 C62.01497822 73.98935349 62.0062457 72.51418993 62.00307083 71.03902435 C61.99814987 68.97062994 61.97496188 66.90316565 61.94775391 64.83496094 C61.93966705 63.6588324 61.9315802 62.48270386 61.92324829 61.27093506 C61.36929652 56.83630207 59.64943866 54.25100116 56.53125 51.1328125 C54.43144956 50.80264744 54.43144956 50.80264744 51.98974609 50.81396484 C51.04892181 50.79409515 50.10809753 50.77422546 49.13876343 50.75375366 C48.12101837 50.74220245 47.10327332 50.73065125 46.0546875 50.71875 C45.01430328 50.69938385 43.97391907 50.6800177 42.90200806 50.6600647 C39.5701728 50.60015523 36.23830321 50.55383798 32.90625 50.5078125 C30.65102637 50.4696432 28.39581748 50.4305921 26.140625 50.390625 C20.60429725 50.29444451 15.06788115 50.20943054 9.53125 50.1328125 C9.53347061 51.0701976 9.53569122 52.0075827 9.53797913 52.97337341 C9.55821143 61.78803035 9.57322256 70.6026826 9.58306217 79.41735744 C9.58829078 83.94955344 9.59538801 88.48173077 9.60668945 93.01391602 C9.61751914 97.3840408 9.62352701 101.75414758 9.62612724 106.12428474 C9.62798135 107.79532213 9.63160168 109.46635847 9.63698006 111.13738823 C9.64419159 113.46978801 9.6452409 115.80211243 9.64477539 118.13452148 C9.64837067 118.8322316 9.65196594 119.52994171 9.65567017 120.24879456 C9.64530216 125.01876034 9.64530216 125.01876034 8.53125 126.1328125 C6.88894636 126.2573611 5.24072724 126.30849774 3.59375 126.3203125 C2.69785156 126.33449219 1.80195312 126.34867188 0.87890625 126.36328125 C-1.46875 126.1328125 -1.46875 126.1328125 -3.46875 124.1328125 C-3.71763897 121.96857357 -3.71763897 121.96857357 -3.71598816 119.22947693 C-3.72227989 117.67510925 -3.72227989 117.67510925 -3.72869873 116.08934021 C-3.72307922 114.94796097 -3.71745972 113.80658173 -3.71166992 112.63061523 C-3.71356827 111.4322403 -3.71546661 110.23386536 -3.71742249 108.99917603 C-3.72049834 105.70791685 -3.71460762 102.41690747 -3.70446944 99.12567782 C-3.6957011 95.68681915 -3.69744614 92.24796486 -3.6978302 88.80909729 C-3.69689311 83.03457367 -3.68820248 77.26010254 -3.67456055 71.4855957 C-3.65882711 64.80089829 -3.65356267 58.11625836 -3.6542961 51.43154377 C-3.65490556 45.01042088 -3.64980809 38.58931679 -3.64150429 32.16819954 C-3.63796568 29.43096838 -3.63614022 26.69374388 -3.63561058 23.95651054 C-3.63442339 20.1395246 -3.62472693 16.32258691 -3.61401367 12.50561523 C-3.61446686 11.36221176 -3.61492004 10.21880829 -3.61538696 9.04075623 C-3.61112198 8.00733093 -3.60685699 6.97390564 -3.60246277 5.90916443 C-3.60078692 5.00563956 -3.59911108 4.1021147 -3.59738445 3.17121029 C-3.40662511 0.14835438 -3.03977013 0.16353194 0 0 Z " fill="#122536" transform="translate(692.46875,425.8671875)"/>
<path d="M0 0 C0.91485168 -0.0127597 1.82970337 -0.02551941 2.77227783 -0.03866577 C3.75460388 -0.04089142 4.73692993 -0.04311707 5.74902344 -0.04541016 C6.76760437 -0.05206696 7.7861853 -0.05872375 8.83563232 -0.06558228 C10.99082638 -0.07570336 13.14605174 -0.08039946 15.30126953 -0.08007812 C18.58256408 -0.08443833 21.8624992 -0.12072878 25.14355469 -0.15869141 C27.24120636 -0.16456241 29.33886439 -0.1685299 31.43652344 -0.17041016 C32.41075256 -0.18478119 33.38498169 -0.19915222 34.38873291 -0.21395874 C41.54074633 -0.16650852 46.90614588 1.31145998 52.38183594 6.03662109 C53.05085937 6.87386719 53.05085937 6.87386719 53.73339844 7.72802734 C54.425625 8.56140625 54.425625 8.56140625 55.13183594 9.41162109 C57.77713232 13.46381077 58.61076696 17.06867912 58.64892578 21.87182617 C58.66168549 22.96678909 58.67444519 24.06175201 58.68759155 25.18989563 C58.6898172 26.36392441 58.69204285 27.53795319 58.69433594 28.74755859 C58.70432114 30.57295418 58.70432114 30.57295418 58.71450806 32.43522644 C58.72462597 35.00815318 58.72932534 37.58110612 58.72900391 40.15405273 C58.73337086 44.07824273 58.7696852 48.00130232 58.80761719 51.92529297 C58.8134868 54.42854434 58.81745523 56.93180104 58.81933594 59.43505859 C58.83370697 60.60301468 58.848078 61.77097076 58.86288452 62.97431946 C58.81946225 70.76797787 57.85115437 76.24299363 52.61230469 82.31396484 C52.05414062 82.75998047 51.49597656 83.20599609 50.92089844 83.66552734 C50.08751953 84.35775391 50.08751953 84.35775391 49.23730469 85.06396484 C43.69209534 88.6839144 38.51896124 88.61148394 32.08886719 88.62646484 C31.09389725 88.63312164 30.09892731 88.63977844 29.07380676 88.64663696 C26.97166792 88.65674632 24.86949711 88.66145451 22.76733398 88.66113281 C19.56732672 88.66549811 16.36870806 88.70181495 13.16894531 88.73974609 C11.12142396 88.74561633 9.07389609 88.74958434 7.02636719 88.75146484 C6.0771489 88.76583588 5.1279306 88.78020691 4.14994812 88.79501343 C-2.92011719 88.74690087 -8.25498583 87.21295443 -13.66503906 82.54443359 C-14.11105469 81.98626953 -14.55707031 81.42810547 -15.01660156 80.85302734 C-15.47808594 80.29744141 -15.93957031 79.74185547 -16.41503906 79.16943359 C-19.07979251 75.08743866 -19.89534124 71.45445697 -19.94799805 66.61743164 C-19.96398544 65.50244797 -19.97997284 64.38746429 -19.9964447 63.23869324 C-20.0018074 62.04279068 -20.0071701 60.84688812 -20.01269531 59.61474609 C-20.02623802 57.75605644 -20.02623802 57.75605644 -20.04005432 55.8598175 C-20.05455209 53.23982151 -20.06344237 50.61978936 -20.06713867 47.99975586 C-20.07144723 45.32357225 -20.09230426 42.64835018 -20.12866211 39.97241211 C-20.1775528 36.10289295 -20.1929312 32.23454245 -20.20019531 28.36474609 C-20.21972763 27.17491623 -20.23925995 25.98508636 -20.25938416 24.75920105 C-20.21596467 16.7261653 -18.86600039 11.51816257 -13.12791443 5.77568054 C-8.96994057 2.12418618 -5.54173657 0.05268234 0 0 Z M-6.64160156 17.29052734 C-7.59433957 20.14874135 -7.77825339 21.97360282 -7.80273438 24.94213867 C-7.81234192 25.88354202 -7.82194946 26.82494537 -7.83184814 27.7948761 C-7.83609802 28.81051132 -7.8403479 29.82614655 -7.84472656 30.87255859 C-7.85042664 31.91949387 -7.85612671 32.96642914 -7.86199951 34.04508972 C-7.87144923 36.26173899 -7.87798338 38.4784023 -7.88183594 40.69506836 C-7.89153372 44.07935225 -7.92255469 47.46302683 -7.95410156 50.84716797 C-7.96063255 53.00146124 -7.96588264 55.15575885 -7.96972656 57.31005859 C-7.98207336 58.31962112 -7.99442017 59.32918365 -8.00714111 60.36933899 C-7.99028782 65.70908926 -7.84255788 69.7769259 -4.64160156 74.29052734 C-1.07091483 77.2417496 3.68992903 76.5962348 8.10449219 76.59130859 C8.95261978 76.59559372 9.80074738 76.59987885 10.67457581 76.60429382 C12.46574004 76.6100287 14.25692755 76.61054359 16.0480957 76.60620117 C18.78279509 76.60304248 21.51641094 76.62650579 24.25097656 76.65185547 C25.99381374 76.65412874 27.73665382 76.65483183 29.47949219 76.65380859 C30.29421494 76.66301834 31.10893768 76.67222809 31.948349 76.68171692 C37.76898233 76.63447976 41.14124155 75.50768423 45.35839844 71.29052734 C45.69239967 68.94157566 45.69239967 68.94157566 45.68066406 66.18579102 C45.69987915 65.12095993 45.71909424 64.05612885 45.7388916 62.95903015 C45.74739136 61.80385391 45.75589111 60.64867767 45.76464844 59.45849609 C45.78174866 57.68264885 45.78174866 57.68264885 45.79919434 55.8709259 C45.81811466 53.36165961 45.83117036 50.8523434 45.83886719 48.34301758 C45.85826883 44.50367412 45.92028476 40.66647657 45.98339844 36.82763672 C45.99645937 34.39210259 46.00695998 31.95655311 46.01464844 29.52099609 C46.03934204 28.37189255 46.06403564 27.222789 46.08947754 26.03886414 C46.14353008 20.52585061 46.14353008 20.52585061 44.30799866 15.44683838 C40.88814222 12.08840047 37.0905699 11.68466165 32.55577087 11.59579468 C31.70559891 11.60591583 30.85542694 11.61603699 29.97949219 11.62646484 C29.0898024 11.62168121 28.20011261 11.61689758 27.28346252 11.61196899 C25.41006696 11.60857875 23.53661154 11.61771975 21.66333008 11.63867188 C18.80057755 11.66548352 15.94173397 11.63887987 13.07910156 11.60693359 C11.25422315 11.61023723 9.42934716 11.61664251 7.60449219 11.62646484 C6.75229599 11.61634369 5.90009979 11.60622253 5.02207947 11.59579468 C-0.55171274 11.70545224 -3.12871338 12.60696453 -6.64160156 17.29052734 Z " fill="#0F2335" transform="translate(814.6416015625,463.70947265625)"/>
<path d="M0 0 C1.13765305 -0.00307663 2.27530609 -0.00615326 3.44743347 -0.00932312 C4.6704567 -0.0021376 5.89347992 0.00504791 7.15356445 0.01245117 C8.41070755 0.01290939 9.66785065 0.01336761 10.96308899 0.01383972 C13.61859716 0.01686012 16.27375713 0.02366602 18.92919922 0.03710938 C22.33911349 0.05415078 25.74887972 0.05792205 29.1588316 0.05716419 C32.40709061 0.05750067 35.65531836 0.06633147 38.90356445 0.07495117 C40.13266037 0.076064 41.36175629 0.07717682 42.62809753 0.07832336 C44.32039238 0.08789314 44.32039238 0.08789314 46.046875 0.09765625 C47.04518845 0.10146805 48.04350189 0.10527985 49.07206726 0.10920715 C51.3293457 0.24291992 51.3293457 0.24291992 52.3293457 1.24291992 C52.42758507 2.90721044 52.45908201 4.57573923 52.4543457 6.24291992 C52.45821289 7.60416992 52.45821289 7.60416992 52.4621582 8.99291992 C52.3293457 11.24291992 52.3293457 11.24291992 51.3293457 12.24291992 C49.66277354 12.34501258 47.99195059 12.37861802 46.32226562 12.38476562 C44.72006416 12.39531731 44.72006416 12.39531731 43.085495 12.40608215 C41.92202042 12.41024643 40.75854584 12.41441071 39.55981445 12.41870117 C37.1203527 12.44189947 34.68089954 12.46601681 32.24145508 12.4909668 C28.37673195 12.52611181 24.51232453 12.55543561 20.64746094 12.56884766 C16.93035187 12.58428909 13.21417776 12.62447994 9.49731445 12.66870117 C8.33991257 12.66679276 7.18251068 12.66488434 5.99003601 12.66291809 C4.91244522 12.67940903 3.83485443 12.69589996 2.72460938 12.71289062 C1.77720383 12.71875687 0.82979828 12.72462311 -0.14631653 12.73066711 C-3.44527492 13.40011029 -4.63913193 14.60013818 -6.6706543 17.24291992 C-7.04372536 20.08942277 -7.18710927 22.47577549 -7.1081543 25.30541992 C-7.11878906 26.38533203 -7.11878906 26.38533203 -7.12963867 27.48706055 C-7.12837436 31.47769097 -7.12837436 31.47769097 -5.39015198 34.94813538 C-2.32785628 37.25404901 1.55067518 36.64074034 5.23950195 36.61401367 C7.05265472 36.6314129 8.86580572 36.64899707 10.67895508 36.66674805 C13.52689125 36.67676997 16.37470328 36.68043027 19.22265625 36.67871094 C41.81987081 36.70826523 41.81987081 36.70826523 49.80200195 43.27807617 C50.32665039 43.94709961 50.85129883 44.61612305 51.3918457 45.30541992 C52.21362305 46.31282227 52.21362305 46.31282227 53.05200195 47.34057617 C56.17902611 51.99764274 55.55008401 57.16761051 55.5793457 62.55541992 C55.5999707 63.49321289 55.6205957 64.43100586 55.6418457 65.3972168 C55.68036472 72.22952801 54.58774098 76.45313752 50.2043457 81.86791992 C42.42027471 88.29823944 34.85129461 88.81252006 25.0168457 88.66870117 C23.76677734 88.66541306 22.51670898 88.66212494 21.22875977 88.65873718 C17.93436969 88.64571715 14.64078195 88.61486215 11.34661865 88.5758667 C8.64468892 88.54848034 5.94284591 88.54002948 3.24079895 88.5323 C0.020266 88.52235991 -3.20017636 88.50212405 -6.4206543 88.48120117 C-7.63406494 88.47381424 -8.84747559 88.46642731 -10.09765625 88.45881653 C-11.20971436 88.44598129 -12.32177246 88.43314606 -13.4675293 88.41992188 C-14.94237793 88.40515556 -14.94237793 88.40515556 -16.44702148 88.39009094 C-18.6706543 88.24291992 -18.6706543 88.24291992 -19.6706543 87.24291992 C-19.76889367 85.57862941 -19.80039061 83.91010061 -19.7956543 82.24291992 C-19.79823242 81.33541992 -19.80081055 80.42791992 -19.8034668 79.49291992 C-19.6706543 77.24291992 -19.6706543 77.24291992 -18.6706543 76.24291992 C-16.97377644 76.13031067 -15.27230462 76.08613639 -13.57177734 76.06933594 C-12.48362228 76.0558461 -11.39546722 76.04235626 -10.27433777 76.02845764 C-8.49631523 76.01280006 -8.49631523 76.01280006 -6.68237305 75.99682617 C-4.19734351 75.9638855 -1.71231756 75.93067389 0.77270508 75.8972168 C4.70977283 75.84978225 8.64682627 75.80537026 12.58398438 75.76611328 C16.37035609 75.72644676 20.15642255 75.67488287 23.94262695 75.62182617 C25.12190262 75.61341202 26.30117828 75.60499786 27.51618958 75.59632874 C28.61380112 75.57968674 29.71141266 75.56304474 30.84228516 75.54589844 C32.29004082 75.53043724 32.29004082 75.53043724 33.76704407 75.5146637 C36.43716055 75.23148567 38.06697558 74.66291036 40.3293457 73.24291992 C42.71465492 69.9216033 42.59768402 66.74067191 42.5793457 62.74291992 C42.58450195 61.61885742 42.5896582 60.49479492 42.5949707 59.33666992 C42.33620434 56.32280288 42.08018232 54.68079369 40.3293457 52.24291992 C37.47820949 50.52207102 35.3655099 49.99545787 32.05493164 50.00341797 C31.22016296 49.99968674 30.38539429 49.99595551 29.52532959 49.99211121 C28.63049866 49.99624527 27.73566772 50.00037933 26.8137207 50.00463867 C24.90355738 49.98921477 22.993401 49.97291083 21.08325195 49.95581055 C18.08358402 49.93938811 15.0844258 49.93040791 12.0847168 49.9375 C9.18130478 49.94013207 6.279427 49.91191009 3.3762207 49.87963867 C2.48948669 49.88984543 1.60275269 49.90005219 0.68914795 49.91056824 C-5.62801325 49.8122544 -9.74658606 48.22004841 -14.6706543 44.24291992 C-20.16919538 38.45498194 -21.03296961 33.11099668 -21.0456543 25.43041992 C-21.08239258 24.27703125 -21.08239258 24.27703125 -21.11987305 23.1003418 C-21.15373981 16.41165662 -19.33490286 11.2694128 -14.8894043 6.21948242 C-14.3222168 5.7734668 -13.7550293 5.32745117 -13.1706543 4.86791992 C-12.6034668 4.40643555 -12.0362793 3.94495117 -11.4519043 3.46948242 C-7.54282023 0.77770085 -4.78293637 -0.006811 0 0 Z " fill="#0F2334" transform="translate(606.670654296875,463.757080078125)"/>
<path d="M0 0 C0.91492722 -0.01283524 1.82985443 -0.02567047 2.77250671 -0.03889465 C3.75999405 -0.04628159 4.74748138 -0.05366852 5.76489258 -0.0612793 C6.78488846 -0.06935104 7.80488434 -0.07742279 8.85578918 -0.08573914 C11.01696068 -0.09957488 13.17815399 -0.11029931 15.33935547 -0.11816406 C18.62941481 -0.13534137 21.91845993 -0.17922873 25.20825195 -0.22338867 C27.31045812 -0.23351909 29.41267282 -0.2420341 31.51489258 -0.2487793 C32.49225876 -0.26628738 33.46962494 -0.28379547 34.47660828 -0.30183411 C41.65355188 -0.27927377 47.35243623 1.03975636 52.53051758 6.24731445 C52.98555664 6.92536133 53.4405957 7.6034082 53.90942383 8.30200195 C54.38250977 8.98520508 54.8555957 9.6684082 55.34301758 10.37231445 C57.68323367 14.11342115 57.59857952 16.65065178 57.60131836 21.08935547 C57.60394684 22.15540009 57.60394684 22.15540009 57.60662842 23.24298096 C57.61103773 25.59731471 57.60811249 27.95157365 57.60473633 30.3059082 C57.60540956 31.9373323 57.60637974 33.5687563 57.6076355 35.20018005 C57.60911116 38.62076776 57.60696185 42.04132938 57.60229492 45.46191406 C57.5965932 49.85611067 57.59988027 54.25024627 57.60586739 58.64444065 C57.6094727 62.01320357 57.60833463 65.38195191 57.60573959 68.75071526 C57.60507047 70.37151026 57.60589822 71.99230657 57.60821915 73.61310005 C57.61074567 75.8734503 57.60690532 78.13370024 57.60131836 80.39404297 C57.60052277 81.68262711 57.59972717 82.97121124 57.59890747 84.29884338 C57.47192383 87.17700195 57.47192383 87.17700195 56.47192383 88.17700195 C54.80763331 88.27524132 53.13910452 88.30673826 51.47192383 88.30200195 C50.11067383 88.30586914 50.11067383 88.30586914 48.72192383 88.30981445 C46.47192383 88.17700195 46.47192383 88.17700195 45.47192383 87.17700195 C45.36375637 85.05109164 45.32562207 82.9215985 45.31420898 80.79296875 C45.30912827 80.12625153 45.30404755 79.4595343 45.29881287 78.77261353 C45.28808774 77.32009394 45.27947601 75.86755761 45.27269363 74.41501427 C45.2609341 72.11600908 45.2414883 69.81719427 45.21957397 67.51826477 C45.15786498 60.98017718 45.10392847 54.44210695 45.07055664 47.90380859 C45.04961159 43.90840294 45.01430626 39.91334047 44.96979904 35.91813087 C44.955633 34.39475356 44.94691523 32.87131548 44.94374466 31.3478756 C44.93883611 29.214625 44.91568047 27.08228445 44.88842773 24.94921875 C44.88034088 23.73533981 44.87225403 22.52146088 44.86392212 21.27079773 C44.43893287 17.91662506 43.85854132 16.53168419 41.47192383 14.17700195 C37.51395506 12.85767903 33.69841707 12.97473293 29.56958008 12.9387207 C28.69546982 12.93064896 27.82135956 12.92257721 26.92076111 12.91426086 C25.07235693 12.90043672 23.2239274 12.8897071 21.37548828 12.88183594 C18.54842032 12.86458735 15.72251133 12.82068327 12.89575195 12.77661133 C11.09953659 12.76648709 9.3033113 12.75797015 7.50708008 12.7512207 C6.66218521 12.73371262 5.81729034 12.71620453 4.9467926 12.69816589 C0.09853636 12.69348692 0.09853636 12.69348692 -4.03027344 15.07861328 C-6.66979121 18.7765196 -6.67014895 21.08995133 -6.7175293 25.63037109 C-6.72996925 26.62326393 -6.72996925 26.62326393 -6.74266052 27.63621521 C-6.76006691 29.07452561 -6.77523213 30.51286445 -6.78843689 31.95121956 C-6.80943802 34.22426445 -6.83646125 36.49716585 -6.8651123 38.77012634 C-6.93499934 44.41424454 -6.99441899 50.05846447 -7.05413818 55.70269775 C-7.10498943 60.47240227 -7.15978413 65.24202897 -7.21995544 70.01162529 C-7.24661457 72.25683688 -7.26737596 74.5020554 -7.28796387 76.74732971 C-7.30455962 78.11589914 -7.32143082 79.48446527 -7.33862305 80.85302734 C-7.35115112 82.05278702 -7.3636792 83.25254669 -7.37658691 84.48866272 C-7.52807617 87.17700195 -7.52807617 87.17700195 -8.52807617 88.17700195 C-10.19236669 88.27524132 -11.86089548 88.30673826 -13.52807617 88.30200195 C-14.88932617 88.30586914 -14.88932617 88.30586914 -16.27807617 88.30981445 C-18.52807617 88.17700195 -18.52807617 88.17700195 -19.52807617 87.17700195 C-19.64352919 84.98059364 -19.6877949 82.78042737 -19.70507812 80.58105469 C-19.71493492 79.54672554 -19.71493492 79.54672554 -19.72499084 78.49150085 C-19.74477948 76.19786478 -19.75640315 73.90429457 -19.76635742 71.6105957 C-19.77043295 70.82715349 -19.77450848 70.04371128 -19.7787075 69.2365284 C-19.79959917 65.08412055 -19.8138833 60.93174598 -19.82324219 56.77929688 C-19.83426948 52.501009 -19.86861716 48.22324662 -19.90841389 43.9451437 C-19.93464875 40.64814837 -19.94294043 37.35127638 -19.94652367 34.05418587 C-19.95137765 32.47821597 -19.96295767 30.90225115 -19.98156166 29.32638359 C-20.15120379 13.99455695 -20.15120379 13.99455695 -15.52807617 7.17700195 C-13.49291992 5.1184082 -13.49291992 5.1184082 -11.46557617 3.73950195 C-10.79397461 3.26641602 -10.12237305 2.79333008 -9.43041992 2.3059082 C-6.25496287 0.4214994 -3.61148723 0.04421048 0 0 Z " fill="#0C2032" transform="translate(1215.528076171875,463.822998046875)"/>
<path d="M0 0 C1.12341797 -0.01224609 2.24683594 -0.02449219 3.40429688 -0.03710938 C5.01208008 -0.04000977 5.01208008 -0.04000977 6.65234375 -0.04296875 C8.13528931 -0.04913208 8.13528931 -0.04913208 9.64819336 -0.05541992 C12.0625 0.1875 12.0625 0.1875 14.0625 2.1875 C14.30859566 4.18274117 14.30859566 4.18274117 14.30300903 6.67996216 C14.30575836 7.62509674 14.30850769 8.57023132 14.31134033 9.54400635 C14.30414978 10.58409851 14.29695923 11.62419067 14.28955078 12.69580078 C14.28984283 13.78849274 14.29013489 14.88118469 14.29043579 16.00698853 C14.28903825 19.63234292 14.27345699 23.25749385 14.2578125 26.8828125 C14.25408388 29.39102059 14.2512362 31.89923012 14.24923706 34.40744019 C14.24237119 40.34312286 14.22659528 46.27873984 14.20653808 52.21438873 C14.18201013 59.63379818 14.1712526 67.05321665 14.16015625 74.47265625 C14.13868515 87.71097486 14.10491739 100.94923279 14.0625 114.1875 C15.45275391 114.17009766 15.45275391 114.17009766 16.87109375 114.15234375 C18.06863281 114.14332031 19.26617188 114.13429688 20.5 114.125 C21.69496094 114.11339844 22.88992188 114.10179687 24.12109375 114.08984375 C27.0625 114.1875 27.0625 114.1875 28.0625 115.1875 C28.16073937 116.85179051 28.19223631 118.52031931 28.1875 120.1875 C28.19136719 121.54875 28.19136719 121.54875 28.1953125 122.9375 C28.0625 125.1875 28.0625 125.1875 27.0625 126.1875 C24.18985944 126.28856874 21.34176372 126.32719672 18.46875 126.3203125 C17.60689087 126.32126923 16.74503174 126.32222595 15.85705566 126.32321167 C14.03116788 126.3238935 12.20527769 126.32203904 10.37939453 126.31787109 C7.57448922 126.31252286 4.76974405 126.31781599 1.96484375 126.32421875 C0.19531214 126.32355797 -1.57421936 126.32227681 -3.34375 126.3203125 C-4.18852905 126.32233673 -5.03330811 126.32436096 -5.90368652 126.32644653 C-11.82254969 126.30245031 -11.82254969 126.30245031 -12.9375 125.1875 C-13.03573937 123.52320949 -13.06723631 121.85468069 -13.0625 120.1875 C-13.06507812 119.28 -13.06765625 118.3725 -13.0703125 117.4375 C-12.9375 115.1875 -12.9375 115.1875 -11.9375 114.1875 C-7.6475 114.1875 -3.3575 114.1875 1.0625 114.1875 C1.0625 80.5275 1.0625 46.8675 1.0625 12.1875 C-3.2275 12.1875 -7.5175 12.1875 -11.9375 12.1875 C-12.9375 11.1875 -12.9375 11.1875 -13.0703125 8.9375 C-13.06773438 8.03 -13.06515625 7.1225 -13.0625 6.1875 C-13.06507812 5.28 -13.06765625 4.3725 -13.0703125 3.4375 C-12.73617988 -2.2230997 -4.30432129 0.00246102 0 0 Z " fill="#112536" transform="translate(1089.9375,425.8125)"/>
<path d="M0 0 C0.98484375 -0.00128906 1.9696875 -0.00257813 2.984375 -0.00390625 C4.02078125 -0.00003906 5.0571875 0.00382812 6.125 0.0078125 C7.67960937 0.00201172 7.67960937 0.00201172 9.265625 -0.00390625 C10.25046875 -0.00261719 11.2353125 -0.00132812 12.25 0 C13.16007812 0.00112793 14.07015625 0.00225586 15.0078125 0.00341797 C17.125 0.1328125 17.125 0.1328125 18.125 1.1328125 C18.21992722 3.47535032 18.25059791 5.78827354 18.23852539 8.13110352 C18.23867142 8.86276733 18.23881744 9.59443115 18.2389679 10.3482666 C18.23826867 12.77778034 18.23047585 15.20721833 18.22265625 17.63671875 C18.2207921 19.31680764 18.21936819 20.99689707 18.21836853 22.67698669 C18.21454307 27.10754893 18.20471256 31.5380786 18.19366455 35.96862793 C18.18345103 40.48624226 18.17887104 45.00386184 18.17382812 49.52148438 C18.16309031 58.39194143 18.14601356 67.26237426 18.125 76.1328125 C18.83527344 76.12121094 19.54554687 76.10960937 20.27734375 76.09765625 C21.19644531 76.08863281 22.11554688 76.07960938 23.0625 76.0703125 C23.97902344 76.05871094 24.89554688 76.04710937 25.83984375 76.03515625 C28.125 76.1328125 28.125 76.1328125 29.125 77.1328125 C29.22323937 78.79710301 29.25473631 80.46563181 29.25 82.1328125 C29.25386719 83.4940625 29.25386719 83.4940625 29.2578125 84.8828125 C29.125 87.1328125 29.125 87.1328125 28.125 88.1328125 C25.68839554 88.23364014 23.28075299 88.27253853 20.84375 88.265625 C20.11506714 88.26658173 19.38638428 88.26753845 18.63562012 88.26852417 C17.0922029 88.26920585 15.54878283 88.26735238 14.00537109 88.26318359 C11.635026 88.25783512 9.26487041 88.26312892 6.89453125 88.26953125 C5.39843708 88.26887047 3.90234303 88.2675893 2.40625 88.265625 C1.33594543 88.26866135 1.33594543 88.26866135 0.24401855 88.27175903 C-4.76004809 88.24776441 -4.76004809 88.24776441 -5.875 87.1328125 C-5.97323937 85.46852199 -6.00473631 83.79999319 -6 82.1328125 C-6.00257812 81.2253125 -6.00515625 80.3178125 -6.0078125 79.3828125 C-5.875 77.1328125 -5.875 77.1328125 -4.875 76.1328125 C-1.575 76.1328125 1.725 76.1328125 5.125 76.1328125 C5.125 55.0128125 5.125 33.8928125 5.125 12.1328125 C1.825 12.1328125 -1.475 12.1328125 -4.875 12.1328125 C-5.875 11.1328125 -5.875 11.1328125 -6.0078125 8.8828125 C-6.00523438 7.9753125 -6.00265625 7.0678125 -6 6.1328125 C-6.00257812 5.2253125 -6.00515625 4.3178125 -6.0078125 3.3828125 C-5.76235164 -0.77558328 -3.65535128 0.00453036 0 0 Z " fill="#122537" transform="translate(1143.875,463.8671875)"/>
<path d="M0 0 C0.88264023 -0.00095673 1.76528046 -0.00191345 2.67466736 -0.00289917 C4.54165722 -0.00358019 6.40864944 -0.00173135 8.27563477 0.00244141 C11.14409663 0.0077971 14.01240236 0.00249051 16.88085938 -0.00390625 C18.6914066 -0.00324558 20.50195372 -0.00196465 22.3125 0 C23.60777367 -0.00303635 23.60777367 -0.00303635 24.92921448 -0.00613403 C30.97488936 0.01785811 30.97488936 0.01785811 32.08984375 1.1328125 C32.18808312 2.79710301 32.21958006 4.46563181 32.21484375 6.1328125 C32.21871094 7.4940625 32.21871094 7.4940625 32.22265625 8.8828125 C32.08984375 11.1328125 32.08984375 11.1328125 31.08984375 12.1328125 C28.41112756 12.23117697 25.75349121 12.26994699 23.07421875 12.2734375 C21.41404884 12.29177117 19.75389222 12.311342 18.09375 12.33203125 C15.46901185 12.36097155 12.84512275 12.38281152 10.22021484 12.38330078 C7.69161144 12.38664108 5.1649793 12.42123054 2.63671875 12.4609375 C1.8563324 12.4538678 1.07594604 12.4467981 0.27191162 12.43951416 C-0.46525085 12.45592957 -1.20241333 12.47234497 -1.96191406 12.48925781 C-2.60509583 12.49290344 -3.24827759 12.49654907 -3.91094971 12.50030518 C-7.23366509 13.55154314 -8.77350541 15.44027763 -10.91015625 18.1328125 C-11.65918322 21.40135094 -11.65918322 21.40135094 -11.55371094 25.01855469 C-11.56258835 25.6906749 -11.57146576 26.3627951 -11.58061218 27.05528259 C-11.6042038 29.26392716 -11.59312795 31.47096861 -11.58203125 33.6796875 C-11.59261274 35.21716027 -11.60552496 36.7546186 -11.6206665 38.29205322 C-11.65483442 42.32936352 -11.66024982 46.3661903 -11.65875244 50.40362549 C-11.66198246 56.10798282 -11.7045936 61.8122065 -11.74249268 67.51641846 C-11.76255564 70.5535516 -11.77184258 73.59042783 -11.77264404 76.62762451 C-11.77646258 78.00663256 -11.78030639 79.38564054 -11.78417969 80.76464844 C-11.78464294 81.97312439 -11.7851062 83.18160034 -11.7855835 84.42669678 C-11.91015625 87.1328125 -11.91015625 87.1328125 -12.91015625 88.1328125 C-14.57444676 88.23105187 -16.24297556 88.26254881 -17.91015625 88.2578125 C-19.27140625 88.26167969 -19.27140625 88.26167969 -20.66015625 88.265625 C-22.91015625 88.1328125 -22.91015625 88.1328125 -23.91015625 87.1328125 C-24.03619892 84.91133882 -24.09102725 82.68580949 -24.11889648 80.4609375 C-24.12868027 79.76323746 -24.13846405 79.06553741 -24.14854431 78.34669495 C-24.17858144 76.02542031 -24.19991609 73.70420414 -24.21875 71.3828125 C-24.22532183 70.58958588 -24.23189365 69.79635925 -24.23866463 68.97909546 C-24.27130758 64.77367945 -24.29573639 60.56828915 -24.31518555 56.36279297 C-24.33294276 52.89008268 -24.36766369 49.41819303 -24.41772461 45.94580078 C-24.47815485 41.74943844 -24.50869388 37.5538324 -24.51835823 33.35705566 C-24.52688275 31.76232109 -24.54562654 30.16760506 -24.57510185 28.57312012 C-24.71843374 20.37230788 -24.83201523 13.54216966 -19.56703186 6.75463867 C-16.91474149 4.15845468 -14.27971919 2.68799539 -10.91015625 1.1328125 C-7.53497956 -0.55477585 -3.71160026 -0.00872108 0 0 Z " fill="#0C2031" transform="translate(925.91015625,463.8671875)"/>
<path d="M0 0 C0.87173859 -0.00428513 1.74347717 -0.00857025 2.64163208 -0.01298523 C4.48585136 -0.01872786 6.33009329 -0.01922928 8.17431641 -0.01489258 C10.99030446 -0.01173836 13.80523605 -0.03517213 16.62109375 -0.06054688 C18.41406118 -0.06282051 20.20703142 -0.06352307 22 -0.0625 C22.83973358 -0.07170975 23.67946716 -0.08091949 24.54464722 -0.09040833 C29.22444049 -0.05354618 32.35214072 0.23679255 36.1328125 3.30078125 C38.1328125 6.30078125 38.1328125 6.30078125 38.1328125 25.30078125 C20.6428125 25.30078125 3.1528125 25.30078125 -14.8671875 25.30078125 C-14.8671875 7.30078125 -14.8671875 7.30078125 -11.8671875 2.30078125 C-7.93768331 -0.31888821 -4.56083583 -0.00492637 0 0 Z " fill="#F8F8F8" transform="translate(1327.8671875,475.69921875)"/>
<path d="M0 0 C1.30124062 0.00418442 1.30124062 0.00418442 2.62876892 0.00845337 C4.45525783 0.02117092 6.28169843 0.05073966 8.10766602 0.09619141 C10.89760661 0.16394745 13.6839197 0.17818687 16.47460938 0.18359375 C18.25394248 0.20259493 20.03324634 0.22462773 21.8125 0.25 C22.64282242 0.25647552 23.47314484 0.26295105 24.32862854 0.2696228 C28.95561427 0.40212153 32.09604362 0.78461965 35.83984375 3.7890625 C37.83984375 6.7890625 37.83984375 6.7890625 37.83984375 25.7890625 C20.34984375 25.7890625 2.85984375 25.7890625 -15.16015625 25.7890625 C-15.16015625 7.7890625 -15.16015625 7.7890625 -12.73266602 3.21337891 C-8.88391413 -0.11624031 -4.89910648 -0.15802705 0 0 Z " fill="#F7F7F8" transform="translate(1006.16015625,475.2109375)"/>
<path d="M0 0 C2.30151367 1.1105957 2.30151367 1.1105957 4.66796875 2.67578125 C5.55331299 3.25166992 6.43865723 3.82755859 7.35083008 4.42089844 C8.28693115 5.04512695 9.22303223 5.66935547 10.1875 6.3125 C12.15260294 7.59664941 14.11876626 8.87917749 16.0859375 10.16015625 C17.07174805 10.80484863 18.05755859 11.44954102 19.07324219 12.11376953 C24.18266099 15.40667658 29.39906869 18.52307841 34.62768555 21.62231445 C39.89326846 24.78653692 39.89326846 24.78653692 41 27 C41.3125 29.875 41.3125 29.875 41 33 C38.31842424 36.13680654 35.3112024 38.2337366 31.81640625 40.390625 C30.81206543 41.01445068 29.80772461 41.63827637 28.77294922 42.28100586 C27.71350098 42.93077393 26.65405273 43.58054199 25.5625 44.25 C23.3893017 45.58980934 21.21612444 46.92965281 19.04296875 48.26953125 C17.99931152 48.91100098 16.9556543 49.5524707 15.88037109 50.21337891 C13.47995312 51.70229726 11.10231786 53.21607034 8.73828125 54.76171875 C8.15296631 55.13973633 7.56765137 55.51775391 6.96459961 55.90722656 C5.50013378 56.85639655 4.04268963 57.81637701 2.5859375 58.77734375 C-0.49806512 60.23549 -2.62607096 60.31704523 -6 60 C-7.9375 58.875 -7.9375 58.875 -9 57 C-8.8067926 53.50964085 -8.63269888 51.62576676 -6.10595703 49.12670898 C-4.88175049 48.35049194 -4.88175049 48.35049194 -3.6328125 47.55859375 C-2.72821289 46.97319824 -1.82361328 46.38780273 -0.89160156 45.78466797 C0.06262695 45.19572754 1.01685547 44.60678711 2 44 C2.92071289 43.41492676 3.84142578 42.82985352 4.79003906 42.22705078 C7.55478658 40.48245334 10.3361772 38.76830383 13.125 37.0625 C14.08148438 36.47404297 15.03796875 35.88558594 16.0234375 35.27929688 C18.3472951 33.85012445 20.67281207 32.42374056 23 31 C20.09473326 27.87889386 17.14030258 25.67788523 13.5 23.46875 C12.448125 22.82292969 11.39625 22.17710937 10.3125 21.51171875 C9.219375 20.84785156 8.12625 20.18398438 7 19.5 C4.83018798 18.1822486 2.66339467 16.8595107 0.5 15.53125 C-0.4590625 14.94923828 -1.418125 14.36722656 -2.40625 13.76757812 C-4.9629738 12.02523247 -7.0142754 10.37301132 -9 8 C-8.9375 4.875 -8.9375 4.875 -8 2 C-4.72201411 -0.18532393 -3.79659796 -0.42603616 0 0 Z " fill="#F48760" transform="translate(244,371)"/>
<path d="M0 0 C0.87648193 -0.00287018 1.75296387 -0.00574036 2.65600586 -0.00869751 C4.50863288 -0.01073848 6.36128142 -0.00520628 8.21386719 0.00732422 C11.05192179 0.02337766 13.88855227 0.00747695 16.7265625 -0.01171875 C18.52604481 -0.00973632 20.32552624 -0.00589266 22.125 0 C22.97505615 -0.00607269 23.8251123 -0.01214539 24.70092773 -0.0184021 C30.61602393 0.05232057 30.61602393 0.05232057 32.78686523 1.73519897 C34.75481225 4.30110999 34.45356973 6.26987962 34.0625 9.3984375 C32.78686523 11.06167603 32.78686523 11.06167603 31.0625 12.3984375 C28.01387475 12.69691743 25.17389905 12.81865595 22.125 12.796875 C21.24851807 12.79974518 20.37203613 12.80261536 19.46899414 12.80557251 C17.61636712 12.80761348 15.76371858 12.80208128 13.91113281 12.78955078 C11.07307821 12.77349734 8.23644773 12.78939805 5.3984375 12.80859375 C3.59895519 12.80661132 1.79947376 12.80276766 0 12.796875 C-0.85005615 12.80294769 -1.7001123 12.80902039 -2.57592773 12.8152771 C-8.49102393 12.74455443 -8.49102393 12.74455443 -10.66186523 11.06167603 C-12.62981225 8.49576501 -12.32856973 6.52699538 -11.9375 3.3984375 C-8.79209328 -0.70270632 -4.78080271 -0.03415345 0 0 Z " fill="#EF825C" transform="translate(306.9375,421.6015625)"/>
<path d="M0 0 C0.66 0 1.32 0 2 0 C2.16435547 1.49660156 2.16435547 1.49660156 2.33203125 3.0234375 C2.40695801 3.70188721 2.48188477 4.38033691 2.55908203 5.0793457 C2.73139588 6.64029667 2.90291608 8.20133541 3.07373047 9.76245117 C3.61713303 14.68839066 4.19326956 19.60887722 4.80078125 24.52734375 C4.93701904 25.65027832 5.07325684 26.77321289 5.21362305 27.93017578 C5.48099938 30.12853286 5.75427355 32.32618347 6.03442383 34.52294922 C6.94031022 42.04617548 7.15270208 49.42582269 7 57 C3.37 57 -0.26 57 -4 57 C-4.41826564 44.97873562 -3.71364033 33.14785649 -2.5625 21.1875 C-2.46127335 20.12837402 -2.46127335 20.12837402 -2.35800171 19.04785156 C-1.7420187 12.66704183 -1.11429669 6.31755166 0 0 Z " fill="#0E2031" transform="translate(374,455)"/>
<path d="M0 0 C1.94140625 0.59765625 1.94140625 0.59765625 4.44140625 2.72265625 C6.3594244 6.39885771 6.59953122 8.50265641 5.94140625 12.59765625 C3.94615702 15.52817856 2.5130414 17.24287128 -1.03125 18.04296875 C-4.39781812 18.23174827 -6.65674856 17.85524932 -9.49609375 16.03515625 C-11.57718278 12.78865736 -11.99109332 10.44518086 -12.05859375 6.59765625 C-9.44947627 0.72714192 -6.43628655 -1.03122823 0 0 Z " fill="#132536" transform="translate(1158.05859375,427.40234375)"/>
<path d="M0 0 C3.3 0 6.6 0 10 0 C8.02501099 27.94514191 8.02501099 27.94514191 6 41 C5.34 41 4.68 41 4 41 C3.4193211 37.09122792 2.85026565 33.18093984 2.29101562 29.26904297 C2.0071497 27.29960402 1.7146232 25.33141949 1.421875 23.36328125 C0.30609253 15.51295459 -0.26686368 7.92807521 0 0 Z " fill="#104D77" transform="translate(348,512)"/>
<path d="M0 0 C0.33 0 0.66 0 1 0 C1.68185406 3.45551308 2.34259857 6.91475869 3 10.375 C3.19078125 11.34050781 3.3815625 12.30601562 3.578125 13.30078125 C4.77082408 19.64764423 5.1888875 25.54240858 5 32 C1.7 32 -1.6 32 -5 32 C-5.21949444 25.08238481 -4.4375941 18.83329205 -3.0625 12.0625 C-2.88009766 11.11826172 -2.69769531 10.17402344 -2.50976562 9.20117188 C-1.1520901 2.30418019 -1.1520901 2.30418019 0 0 Z " fill="#172A3C" transform="translate(331,480)"/>
<path d="M0 0 C1.26650682 3.79952046 0.66451173 6.12669821 0.00390625 10.07421875 C-0.10848892 10.7580513 -0.22088409 11.44188385 -0.33668518 12.1464386 C-0.69684578 14.32798145 -1.06703483 16.50768582 -1.4375 18.6875 C-1.68360555 20.16720762 -1.92905619 21.64702432 -2.17382812 23.12695312 C-2.77496073 26.75259818 -3.38509791 30.37666179 -4 34 C-4.66 34 -5.32 34 -6 34 C-6.50787046 31.00114586 -7.00646625 28.00121874 -7.5 25 C-7.64308594 24.16082031 -7.78617187 23.32164062 -7.93359375 22.45703125 C-10.08349609 9.25048828 -10.08349609 9.25048828 -8 3 C-5.36 2.67 -2.72 2.34 0 2 C0 1.34 0 0.68 0 0 Z " fill="#135179" transform="translate(402,509)"/>
<path d="M0 0 C4.38799805 7.55498795 5.52722442 18.38866781 5 27 C2.03 27 -0.94 27 -4 27 C-4.32300128 20.97064285 -3.68219385 15.46718202 -2.5625 9.5625 C-2.360802 8.49708984 -2.360802 8.49708984 -2.1550293 7.41015625 C-1.14321753 2.28643505 -1.14321753 2.28643505 0 0 Z " fill="#192C3E" transform="translate(418,485)"/>
<path d="M0 0 C2.97 0 5.94 0 9 0 C8.37968409 6.57534861 6.85102717 12.66692592 5 19 C2.93421237 15.90131855 2.25308642 13.65023694 1.375 10.0625 C1.11460937 9.02222656 0.85421875 7.98195313 0.5859375 6.91015625 C0 4 0 4 0 0 Z " fill="#11507A" transform="translate(305,512)"/>
<path d="M0 0 C0.99 0.33 1.98 0.66 3 1 C3.94921875 3.14453125 3.94921875 3.14453125 4.6875 5.8125 C5.06455078 7.12154297 5.06455078 7.12154297 5.44921875 8.45703125 C6 11 6 11 6 15 C2.7 15 -0.6 15 -4 15 C-3.50341703 9.33895411 -2.45489316 5.12325529 0 0 Z " fill="#182B3E" transform="translate(287,497)"/>
<path d="M0 0 C3.3 0 6.6 0 10 0 C10.33 0.66 10.66 1.32 11 2 C9.78515625 4.8203125 9.78515625 4.8203125 8.0625 8.125 C7.49660156 9.22070312 6.93070312 10.31640625 6.34765625 11.4453125 C5.90292969 12.28835938 5.45820313 13.13140625 5 14 C3 13 3 13 2.1484375 11.07421875 C1.89320313 10.28660156 1.63796875 9.49898437 1.375 8.6875 C0.98441406 7.51767578 0.98441406 7.51767578 0.5859375 6.32421875 C0 4 0 4 0 0 Z " fill="#13527D" transform="translate(435,512)"/>
<path d="M0 0 C13.2 0 26.4 0 40 0 C40.66 1.32 41.32 2.64 42 4 C41.01 3.67 40.02 3.34 39 3 C36.05282827 2.84565842 33.12501135 2.7424397 30.17578125 2.68359375 C29.31438034 2.66281265 28.45297943 2.64203156 27.56547546 2.62062073 C24.81456456 2.55525091 22.06355844 2.49629868 19.3125 2.4375 C17.44725579 2.39430283 15.5820212 2.35068815 13.71679688 2.30664062 C9.14462876 2.19958237 4.5723649 2.09827946 0 2 C0 1.34 0 0.68 0 0 Z " fill="#DF7C5E" transform="translate(298,422)"/>
<path d="M0 0 C0.83265381 0.00523682 1.66530762 0.01047363 2.52319336 0.01586914 C3.42231445 0.0190918 4.32143555 0.02231445 5.24780273 0.02563477 C6.66609375 0.03820312 6.66609375 0.03820312 8.11303711 0.05102539 C9.06243164 0.05553711 10.01182617 0.06004883 10.98999023 0.06469727 C13.34356776 0.07652429 15.69702188 0.09300514 18.05053711 0.11352539 C18.05053711 0.44352539 18.05053711 0.77352539 18.05053711 1.11352539 C11.78053711 1.11352539 5.51053711 1.11352539 -0.94946289 1.11352539 C-0.94946289 4.08352539 -0.94946289 7.05352539 -0.94946289 10.11352539 C2.02053711 10.11352539 4.99053711 10.11352539 8.05053711 10.11352539 C8.05053711 10.77352539 8.05053711 11.43352539 8.05053711 12.11352539 C6.40479145 12.1404069 4.75892298 12.15986662 3.11303711 12.17602539 C2.19651367 12.18762695 1.27999023 12.19922852 0.33569336 12.21118164 C-1.94946289 12.11352539 -1.94946289 12.11352539 -2.94946289 11.11352539 C-3.04770226 9.44923488 -3.0791992 7.78070608 -3.07446289 6.11352539 C-3.07704102 5.20602539 -3.07961914 4.29852539 -3.08227539 3.36352539 C-2.91486901 0.52746438 -2.83630675 0.16517002 0 0 Z " fill="#202F40" transform="translate(1140.949462890625,463.886474609375)"/>
<path d="M0 0 C0.66 0 1.32 0 2 0 C2.98497223 4.06301046 3.30933684 7.82395272 3 12 C1.5 13.9375 1.5 13.9375 0 15 C-1 14 -1 14 -1.125 10.3125 C-1.08693698 6.79167021 -0.69181295 3.45906475 0 0 Z " fill="#263645" transform="translate(374,455)"/>
<path d="M0 0 C2.02350324 3.03525486 2.32124018 4.19426202 2.625 7.6875 C2.69976562 8.49574219 2.77453125 9.30398438 2.8515625 10.13671875 C2.92503906 11.05904297 2.92503906 11.05904297 3 12 C2.34 11.67 1.68 11.34 1 11 C-0.32 11.99 -1.64 12.98 -3 14 C-2.855625 13.34 -2.71125 12.68 -2.5625 12 C-2.10727975 9.57215869 -1.77769407 7.20076037 -1.5 4.75 C-1 1 -1 1 0 0 Z " fill="#1D5071" transform="translate(353,526)"/>
<path d="M0 0 C0.66 0.33 1.32 0.66 2 1 C1.67 4.3 1.34 7.6 1 11 C0.34 11 -0.32 11 -1 11 C-1.33 8.03 -1.66 5.06 -2 2 C-1.34 2 -0.68 2 0 2 C0 1.34 0 0.68 0 0 Z " fill="#1D537E" transform="translate(397,532)"/>
<path d="M0 0 C1.78409802 3.06246747 2.22880021 5.22079273 2.125 8.75 C2.10695313 9.54921875 2.08890625 10.3484375 2.0703125 11.171875 C2.04710937 11.77515625 2.02390625 12.3784375 2 13 C1.01 12.34 0.02 11.68 -1 11 C-1.328125 8.90625 -1.328125 8.90625 -1.25 6.5 C-1.23453125 5.7059375 -1.2190625 4.911875 -1.203125 4.09375 C-1 2 -1 2 0 0 Z " fill="#1A2434" transform="translate(418,485)"/>
<path d="M0 0 C0 0.66 0 1.32 0 2 C-0.99 2 -1.98 2 -3 2 C-3.28875 2.5775 -3.5775 3.155 -3.875 3.75 C-4.91666667 5.83333333 -5.95833333 7.91666667 -7 10 C-8 7 -8 7 -6.6875 3.875 C-4.57357499 0.27349813 -4.12762939 0 0 0 Z " fill="#1D5882" transform="translate(460,517)"/>
<path d="M0 0 C0.66 0 1.32 0 2 0 C2.75 2.25 2.75 2.25 3 5 C1.0625 7.3125 1.0625 7.3125 -1 9 C-0.67 6.03 -0.34 3.06 0 0 Z " fill="#2B3A49" transform="translate(329,486)"/>
<path d="M0 0 C1.32 0.33 2.64 0.66 4 1 C3.6875 2.9375 3.6875 2.9375 3 5 C2.01 5.33 1.02 5.66 0 6 C0 4.02 0 2.04 0 0 Z " fill="#034575" transform="translate(395,528)"/>
<path d="M0 0 C4.455 0.99 4.455 0.99 9 2 C9 2.33 9 2.66 9 3 C6.03 3 3.06 3 0 3 C0 2.01 0 1.02 0 0 Z " fill="#051D34" transform="translate(283,509)"/>
</svg>
